<svg width="51" height="51" viewBox="0 0 51 51" fill="none" xmlns="http://www.w3.org/2000/svg">
<path d="M47.5192 28.0766C47.5192 27.3073 46.948 26.6977 46.2175 26.5986V23.4828C46.2175 22.6463 45.5521 21.9679 44.7299 21.9679C43.9078 21.9679 43.2424 22.6463 43.2424 23.4828V26.5585H42.6846V23.4828C42.6846 22.6463 42.0192 21.9679 41.1971 21.9679C40.3749 21.9679 39.7095 22.6463 39.7095 23.4828V26.5585H38.6314V23.3341C38.6314 17.4059 34.2296 12.5835 28.8153 12.5835H28.718C30.3596 11.3993 31.4433 9.45678 31.4433 7.24942C31.443 3.63796 28.5638 0.709473 25.0193 0.709473C21.4745 0.709473 18.5958 3.63796 18.5958 7.24942C18.5958 9.45678 19.6789 11.3993 21.3211 12.5835H21.223C15.8094 12.5835 11.4074 17.4059 11.4074 23.3341V26.5585H10.3288V23.4828C10.3288 22.6463 9.66412 21.9679 8.84126 21.9679C8.0184 21.9679 7.35372 22.6463 7.35372 23.4828V26.5585H6.79593V23.4828C6.79593 22.6463 6.13125 21.9679 5.30839 21.9679C4.48553 21.9679 3.82085 22.6463 3.82085 23.4828V26.5984C3.09152 26.6946 2.51917 27.3071 2.51917 28.0763C2.51917 28.8458 3.09152 29.4583 3.82085 29.5543V32.6701C3.82085 33.5059 4.48553 34.185 5.30839 34.185C6.13149 34.185 6.79593 33.5059 6.79593 32.6701V29.5944H7.35372V32.6701C7.35372 33.5059 8.0184 34.185 8.84126 34.185C9.66412 34.185 10.3288 33.5059 10.3288 32.6701V29.5944H11.7751C12.2777 30.541 13.2504 31.1951 14.3827 31.1951C15.516 31.1951 16.4877 30.5412 16.9904 29.5944H18.2549V47.6794C18.2549 49.3513 19.5878 50.7095 21.2302 50.7095C22.8726 50.7095 24.2055 49.3513 24.2055 47.6794V35.2417H25.8383V47.6794C25.8383 49.3513 27.172 50.7095 28.8136 50.7095C30.4553 50.7095 31.789 49.3513 31.789 47.6794V29.5915H33.0529C33.5554 30.5412 34.529 31.1924 35.662 31.1924C36.7939 31.1924 37.7656 30.5412 38.2699 29.5915H39.7155V32.6674C39.7155 33.5062 40.3809 34.1821 41.203 34.1821C42.0252 34.1821 42.6906 33.5062 42.6906 32.6674V29.5915H43.2484V32.6674C43.2484 33.5062 43.9138 34.1821 44.7359 34.1821C45.558 34.1821 46.2234 33.5062 46.2234 32.6674V29.5516C46.9482 29.4583 47.5192 28.8461 47.5192 28.0766ZM17.358 26.5614V23.337C17.358 22.2067 17.7016 21.1829 18.2551 20.3721V26.5614H17.358ZM31.7861 20.3738C32.3367 21.1846 32.6839 22.2084 32.6839 23.3387V26.5646H31.7861V20.3738Z" fill="black"/>
</svg>
