<svg width="51" height="51" viewBox="0 0 51 51" fill="none" xmlns="http://www.w3.org/2000/svg">
<path d="M0.158203 49.7417C0.158203 49.2073 0.585957 48.774 1.11362 48.774H49.2028C49.7304 48.774 50.1582 49.2073 50.1582 49.7417C50.1582 50.2762 49.7304 50.7095 49.2028 50.7095H1.11362C0.585957 50.7095 0.158203 50.2762 0.158203 49.7417Z" fill="black"/>
<path d="M48.1412 50.7095V18.8815C48.1412 18.2877 47.6659 17.8062 47.0796 17.8062H46.0181V50.7095H48.1412Z" fill="black"/>
<path d="M47.7697 18.1288C48.3266 18.1288 48.7782 17.6715 48.7782 17.1073V1.73098C48.7782 1.16682 48.3266 0.709473 47.7697 0.709473C47.2127 0.709473 46.7612 1.16682 46.7612 1.73098V17.1073C46.7612 17.6715 47.2127 18.1288 47.7697 18.1288Z" fill="black"/>
<path d="M25.1582 50.7095C25.7152 50.7095 26.1667 50.2521 26.1667 49.688V16.7847C26.1667 16.2206 25.7152 15.7632 25.1582 15.7632C24.6012 15.7632 24.1497 16.2206 24.1497 16.7847V49.688C24.1497 50.2521 24.6012 50.7095 25.1582 50.7095Z" fill="black"/>
<path d="M14.1179 50.7095C14.6748 50.7095 15.1264 50.2521 15.1264 49.688V32.6987C15.1264 32.1346 14.6748 31.6772 14.1179 31.6772C13.5609 31.6772 13.1094 32.1346 13.1094 32.6987V49.688C13.1094 50.2521 13.5609 50.7095 14.1179 50.7095Z" fill="black"/>
<path d="M3.18368 50.7095C3.74066 50.7095 4.19217 50.2521 4.19217 49.688V32.6987C4.19217 32.1346 3.74066 31.6772 3.18368 31.6772C2.62671 31.6772 2.17519 32.1346 2.17519 32.6987V49.688C2.17519 50.2521 2.62671 50.7095 3.18368 50.7095Z" fill="black"/>
<path d="M2.12211 22.9675C2.67908 22.9675 3.1306 22.5102 3.1306 21.946V1.73098C3.1306 1.16682 2.67908 0.709473 2.12211 0.709473C1.56513 0.709473 1.11362 1.16682 1.11362 1.73098V21.946C1.11362 22.5102 1.56513 22.9675 2.12211 22.9675Z" fill="black"/>
<path d="M1.11362 16.946C1.11362 17.5993 1.63643 18.1288 2.28135 18.1288H47.6104C48.2554 18.1288 48.7782 17.5993 48.7782 16.946C48.7782 16.2928 48.2554 15.7632 47.6104 15.7632H2.28134C1.63643 15.7632 1.11362 16.2928 1.11362 16.946Z" fill="black"/>
<path d="M1.32593 32.86C1.32593 33.5133 1.84874 34.0428 2.49366 34.0428H24.8928C25.5377 34.0428 26.0605 33.5133 26.0605 32.86C26.0605 32.2068 25.5377 31.6772 24.8928 31.6772H2.49366C1.84874 31.6772 1.32593 32.2068 1.32593 32.86Z" fill="black"/>
<path d="M2.06903 34.0428C1.54137 34.0428 1.11362 33.6095 1.11362 33.0751V28.3439C1.11362 27.8094 1.54137 27.3761 2.06903 27.3761C2.59669 27.3761 3.02445 27.8094 3.02445 28.3439V33.0751C3.02445 33.6095 2.59669 34.0428 2.06903 34.0428Z" fill="black"/>
<path d="M3.1306 29.3116C2.60294 29.3116 2.17519 28.8784 2.17519 28.3439V21.8923C2.17519 21.3578 2.60294 20.9245 3.1306 20.9245C3.65826 20.9245 4.08602 21.3578 4.08602 21.8923V28.3439C4.08602 28.8784 3.65826 29.3116 3.1306 29.3116Z" fill="black"/>
<path d="M36.0393 29.3116C35.5116 29.3116 35.0839 28.8784 35.0839 28.3439V21.8923C35.0839 21.3578 35.5116 20.9245 36.0393 20.9245C36.567 20.9245 36.9947 21.3578 36.9947 21.8923V28.3439C36.9947 28.8784 36.567 29.3116 36.0393 29.3116Z" fill="black"/>
<path d="M14.0648 29.3116C13.5371 29.3116 13.1094 28.8784 13.1094 28.3439V21.8923C13.1094 21.3578 13.5371 20.9245 14.0648 20.9245C14.5924 20.9245 15.0202 21.3578 15.0202 21.8923V28.3439C15.0202 28.8784 14.5924 29.3116 14.0648 29.3116Z" fill="black"/>
<path d="M24.0159 10.4467C23.6838 10.691 23.2191 10.6163 22.978 10.28L20.0655 6.21759C19.8244 5.88122 19.8981 5.41053 20.2302 5.16627C20.5623 4.92201 21.0269 4.99667 21.2681 5.33304L24.1805 9.39542C24.4217 9.73178 24.348 10.2025 24.0159 10.4467Z" fill="black"/>
<path d="M15.245 9.52817C15.245 9.11248 15.5777 8.77549 15.9881 8.77549H18.3484C18.7588 8.77549 19.0915 9.11248 19.0915 9.52817C19.0915 9.94387 18.7588 10.2809 18.3484 10.2809H15.9881C15.5777 10.2809 15.245 9.94387 15.245 9.52817Z" fill="black"/>
<path d="M23.2501 10.4556C22.9145 10.2162 22.8341 9.74662 23.0705 9.40676L25.9247 5.30225C26.1611 4.9624 26.6247 4.88095 26.9602 5.12033C27.2957 5.35972 27.3761 5.82928 27.1398 6.16914L24.2855 10.2736C24.0492 10.6135 23.5856 10.6949 23.2501 10.4556Z" fill="black"/>
<path d="M23.5926 13.994C23.1822 13.994 22.8495 13.657 22.8495 13.2413V9.40957C22.8495 8.99387 23.1822 8.65688 23.5926 8.65688C24.003 8.65688 24.3357 8.99387 24.3357 9.40957V13.2413C24.3357 13.657 24.003 13.994 23.5926 13.994Z" fill="black"/>
<path d="M12.8171 9.38778C12.8706 12.7478 15.5913 13.1991 18.3306 11.7033L18.4564 13.2846C18.1106 13.5011 15.3932 14.4643 13.7186 13.5676C12.0148 12.6553 11.2312 11.3398 11.2314 9.38778H12.8171Z" fill="black"/>
<path d="M18.3484 13.2928C17.938 13.2928 17.6053 12.9558 17.6053 12.5401V9.58963C17.6053 9.17393 17.938 8.83694 18.3484 8.83694C18.7588 8.83694 19.0915 9.17393 19.0915 9.58963V12.5401C19.0915 12.9558 18.7588 13.2928 18.3484 13.2928Z" fill="black"/>
<path d="M37.0839 13.994C36.6482 13.994 36.2949 13.6362 36.2949 13.1948L36.2949 5.38272C36.2949 5.17264 36.4631 5.00234 36.6705 5.00234C37.3416 5.02726 37.8729 5.58555 37.8729 6.26577V13.1948C37.8729 13.6362 37.5197 13.994 37.0839 13.994Z" fill="black"/>
<path d="M29.0504 13.994C29.4862 13.994 29.8394 13.6362 29.8394 13.1948L29.8394 5.38272C29.8394 5.17264 29.6713 5.00234 29.4639 5.00234C28.7928 5.02726 28.2614 5.58555 28.2614 6.26577V13.1948C28.2614 13.6362 28.6147 13.994 29.0504 13.994Z" fill="black"/>
<path d="M32.6321 13.6376C32.1727 13.4167 31.977 12.8605 32.195 12.3952L35.4908 5.64878C35.7598 5.07461 36.4259 4.81473 37.0056 5.05774L37.0413 5.07269C37.0707 5.08501 37.0991 5.09948 37.1264 5.11601C37.4146 5.29045 37.5247 5.65812 37.3808 5.96532L33.8587 13.1948C33.6407 13.6601 33.0915 13.8584 32.6321 13.6376Z" fill="black"/>
<path d="M33.3595 13.6376C33.8189 13.4167 34.0146 12.8605 33.7966 12.3952L30.5739 5.64878C30.3049 5.07461 29.6388 4.81473 29.0591 5.05774L29.0234 5.07269C28.994 5.08501 28.9656 5.09948 28.9383 5.11601C28.6501 5.29045 28.54 5.65812 28.6839 5.96532L32.133 13.1948C32.351 13.6601 32.9001 13.8584 33.3595 13.6376Z" fill="black"/>
<path d="M1.11362 28.3439C1.11362 27.8094 1.54137 27.3761 2.06903 27.3761H46.9735C47.5011 27.3761 47.9289 27.8094 47.9289 28.3439C47.9289 28.8784 47.5011 29.3116 46.9735 29.3116H2.06903C1.54137 29.3116 1.11362 28.8784 1.11362 28.3439Z" fill="black"/>
<path d="M1.11362 21.946C1.11362 21.3819 1.56513 20.9245 2.12211 20.9245H47.1327C47.6897 20.9245 48.1412 21.3819 48.1412 21.946C48.1412 22.5102 47.6897 22.9675 47.1327 22.9675H2.12211C1.56513 22.9675 1.11362 22.5102 1.11362 21.946Z" fill="black"/>
<path d="M1.11362 1.67721C1.11362 1.14275 1.54137 0.709473 2.06903 0.709473H47.8227C48.3504 0.709473 48.7782 1.14275 48.7782 1.67721C48.7782 2.21168 48.3504 2.64496 47.8227 2.64496H2.06903C1.54137 2.64496 1.11362 2.21168 1.11362 1.67721Z" fill="black"/>
<path d="M35.0839 50.7095V33.5052H36.9947V50.7095H35.0839Z" fill="black"/>
<path d="M28.8206 50.7095V35.5482H31.2092C31.0553 35.5542 30.8907 35.6557 30.8282 36.0858L30.7315 50.7095H28.8206Z" fill="black"/>
<path d="M43.3641 50.7095V35.5482H40.9225C41.0798 35.5542 41.2481 35.6557 41.3119 36.0858L41.4109 50.7095H43.3641Z" fill="black"/>
<path d="M30.8907 33.5052H41.2941C42.8864 34.1503 43.3641 35.5482 43.3641 35.5482H28.8206C28.8206 35.5482 28.8206 34.3654 30.8907 33.5052Z" fill="black"/>
<path d="M45.2219 18.1288H46.0181V19.0966C45.8058 18.4514 45.6996 18.2901 45.2219 18.1288Z" fill="black"/>
<path d="M11.2314 9.38778H12.8171C12.9127 6.20647 16.2197 6.73495 17.9264 7.22261C18.0037 7.2447 18.0819 7.25527 18.159 7.25543C18.583 7.25532 18.974 6.94045 19.0107 6.49446C19.0316 6.24013 18.9268 5.99334 18.7034 5.87524C18.2351 5.62759 17.2503 5.23915 15.5465 5.12832C15.4656 5.12305 15.3854 5.12042 15.3061 5.12033C12.8772 5.11889 11.2312 7.49794 11.2314 9.38778Z" fill="black"/>
</svg>
